<svg width="210" height="74" viewBox="0 0 210 74" fill="none" xmlns="http://www.w3.org/2000/svg">
<rect width="210" height="74" fill="black"/>
<path d="M34.92 23.28H41.16V51H34.92V39.24H24.44V51H18.2V23.28H24.44V33.88H34.92V23.28ZM53.135 51H47.175V29.96H53.135V51ZM53.695 23.88C53.695 24.9733 53.335 25.84 52.615 26.48C51.9217 27.0933 51.095 27.4 50.135 27.4C49.175 27.4 48.335 27.0933 47.615 26.48C46.9217 25.84 46.575 24.9733 46.575 23.88C46.575 22.7867 46.9217 21.9333 47.615 21.32C48.335 20.68 49.175 20.36 50.135 20.36C51.095 20.36 51.9217 20.68 52.615 21.32C53.335 21.9333 53.695 22.7867 53.695 23.88ZM63.8175 40.32C63.8175 42.16 64.2308 43.64 65.0575 44.76C65.8842 45.88 67.1108 46.44 68.7375 46.44C69.2708 46.44 69.7642 46.4267 70.2175 46.4C70.6708 46.3467 71.0442 46.2933 71.3375 46.24V35.4C70.9642 35.16 70.4708 34.96 69.8575 34.8C69.2708 34.64 68.6708 34.56 68.0575 34.56C65.2308 34.56 63.8175 36.48 63.8175 40.32ZM77.2975 50.32C76.7642 50.48 76.1508 50.64 75.4575 50.8C74.7642 50.9333 74.0308 51.0533 73.2575 51.16C72.5108 51.2667 71.7375 51.3467 70.9375 51.4C70.1642 51.48 69.4175 51.52 68.6975 51.52C66.9642 51.52 65.4175 51.2667 64.0575 50.76C62.6975 50.2533 61.5508 49.5333 60.6175 48.6C59.6842 47.64 58.9642 46.4933 58.4575 45.16C57.9775 43.8 57.7375 42.28 57.7375 40.6C57.7375 38.8933 57.9508 37.36 58.3775 36C58.8042 34.6133 59.4175 33.44 60.2175 32.48C61.0175 31.52 61.9908 30.7867 63.1375 30.28C64.3108 29.7733 65.6442 29.52 67.1375 29.52C67.9642 29.52 68.6975 29.6 69.3375 29.76C70.0042 29.92 70.6708 30.1467 71.3375 30.44V20.92L77.2975 19.96V50.32ZM95.5581 35.24C95.0248 35.1067 94.3981 34.9733 93.6781 34.84C92.9581 34.68 92.1848 34.6 91.3581 34.6C90.9848 34.6 90.5315 34.64 89.9981 34.72C89.4915 34.7733 89.1048 34.84 88.8381 34.92V51H82.8781V31.08C83.9448 30.7067 85.1981 30.36 86.6381 30.04C88.1048 29.6933 89.7315 29.52 91.5181 29.52C91.8381 29.52 92.2248 29.5467 92.6781 29.6C93.1315 29.6267 93.5848 29.68 94.0381 29.76C94.4915 29.8133 94.9448 29.8933 95.3981 30C95.8515 30.08 96.2381 30.1867 96.5581 30.32L95.5581 35.24ZM119.043 40.44C119.043 42.0933 118.803 43.6133 118.323 45C117.843 46.36 117.149 47.5333 116.243 48.52C115.336 49.48 114.243 50.2267 112.963 50.76C111.709 51.2933 110.296 51.56 108.723 51.56C107.176 51.56 105.763 51.2933 104.483 50.76C103.229 50.2267 102.149 49.48 101.243 48.52C100.336 47.5333 99.6292 46.36 99.1225 45C98.6158 43.6133 98.3625 42.0933 98.3625 40.44C98.3625 38.7867 98.6158 37.28 99.1225 35.92C99.6558 34.56 100.376 33.4 101.283 32.44C102.216 31.48 103.309 30.7333 104.563 30.2C105.843 29.6667 107.229 29.4 108.723 29.4C110.243 29.4 111.629 29.6667 112.883 30.2C114.163 30.7333 115.256 31.48 116.163 32.44C117.069 33.4 117.776 34.56 118.283 35.92C118.789 37.28 119.043 38.7867 119.043 40.44ZM112.963 40.44C112.963 38.6 112.589 37.16 111.843 36.12C111.123 35.0533 110.083 34.52 108.723 34.52C107.363 34.52 106.309 35.0533 105.563 36.12C104.816 37.16 104.443 38.6 104.443 40.44C104.443 42.28 104.816 43.7467 105.563 44.84C106.309 45.9067 107.363 46.44 108.723 46.44C110.083 46.44 111.123 45.9067 111.843 44.84C112.589 43.7467 112.963 42.28 112.963 40.44Z" fill="white"/>
<path d="M150.939 47.0389C150.473 48.0853 149.822 48.7497 149.14 49.1741C148.818 49.3763 148.485 49.5163 148.168 49.6118L147.07 45.3569H139.273L141.992 59.7546C142.157 60.6323 142.892 61.2678 143.748 61.2678H148.835C149.394 61.2678 149.92 60.9945 150.259 60.5301C150.6 60.0656 150.712 59.4636 150.566 58.8992L148.663 51.5314C148.81 51.4891 148.958 51.4402 149.106 51.3825C150.102 51.0003 151.132 50.2871 151.937 49.1495C152.524 48.3275 152.979 47.2854 153.236 46.0278C152.636 45.9078 152.011 45.799 151.365 45.7035C151.257 46.2056 151.113 46.6499 150.939 47.0389Z" fill="#D3221D"/>
<path d="M173.149 11C171.716 11 169.409 13.5619 168.413 14.606C167.549 15.5126 160.737 22.6203 143.462 22.6203V43.8126C160.737 43.8126 167.549 50.9203 168.413 51.8291C169.409 52.8712 171.716 55.433 173.149 55.433C174.579 55.433 175.74 54.2154 175.74 52.7157V13.7173C175.74 12.2177 174.579 11 173.149 11Z" fill="#D3221D"/>
<path d="M141.104 22.6204C135.523 22.6204 131 27.3641 131 33.2165C131 39.0688 135.523 43.8126 141.104 43.8126V22.6204Z" fill="#D3221D"/>
<path d="M177.831 29.2394V37.1938C179.924 37.1938 181.623 35.414 181.623 33.2166C181.623 31.0192 179.924 29.2394 177.831 29.2394Z" fill="#D3221D"/>
<path d="M200.424 31.9011H190.217V33.9785H200.424V31.9011Z" fill="#D3221D"/>
<path d="M197.998 17.8879L196.935 16.137L187.646 22.3449L188.714 24.0979L197.998 17.8879Z" fill="#D3221D"/>
<path d="M187.646 44.3904L196.935 50.6004L197.998 48.8473L188.714 42.6395L187.646 44.3904Z" fill="#D3221D"/>
</svg>
