<svg width="1478" height="998" viewBox="0 0 1478 998" fill="none" xmlns="http://www.w3.org/2000/svg">
<g filter="url(#filter0_f_209_2)">
<path d="M1014 146.703C1015.65 144.555 1019.55 139.765 1021.92 137.783L1030.84 139.269V133.323L1037.28 127.872L1045.7 131.836L1048.67 119.447L1056.6 113.996L1070.96 116.474L1095.73 108.545C1098.21 103.92 1103.26 94.0746 1103.66 91.6959C1104.05 89.3172 1108.77 90.7048 1111.09 91.6959L1116.04 97.6426L1128.42 87.2359L1132.39 99.6248L1135.85 108.545L1123.97 113.996L1132.39 119.447L1137.34 116.474H1153.19L1171.02 108.545L1174.99 97.6426L1185.39 94.6692L1208.67 99.6248L1215.6 91.6959L1232.94 87.2359L1242.85 79.8025H1253.75L1272.57 64.4402L1281.49 73.3603L1295.85 64.4402L1298.33 75.838L1317.65 73.3603L1334.98 59.4846L1326.07 51.0602L1334.98 45.1135V31.2379H1348.36V26.2823L1358.27 17.3623L1370.15 22.8134L1375.6 15.38L1400.37 17.3623L1402.85 11.9111L1414.24 2L1418.7 8.44225H1428.11L1434.05 15.38L1425.63 34.7068H1434.05L1440 45.1135H1454.36L1471.7 40.6535L1475.66 48.5824L1467.24 64.4402L1471.7 75.838L1475.66 91.6959L1467.24 103.589C1465.43 103.424 1461.2 103.193 1458.82 103.589C1456.44 103.986 1433.39 130.845 1422.17 144.225H1414.24L1394.43 149.181H1375.6L1370.15 152.649L1348.36 155.127L1338.95 159.092L1306.25 166.03L1298.82 170.985L1277.52 176.436L1268.61 182.878L1256.72 185.356L1254.24 199.232L1242.35 201.71L1236.9 195.763L1220.06 201.71L1202.23 212.116L1206.19 224.01L1198.76 234.912H1187.87L1192.82 218.063H1181.92L1173 212.116L1156.16 218.063L1148.73 224.01L1131.4 230.948L1101.18 250.77L1096.72 264.645L1075.42 266.628L1071.95 274.061L1065.02 286.945L1047.68 302.308V296.361H1025.89L1008.05 274.061L985.268 270.592L980.809 264.645L985.268 245.814H975.856L990.716 234.912L998.642 239.372L1004.09 234.912V226.488L1009.54 212.116L975.856 199.232L985.268 180.896L975.856 173.958V163.056H990.716H1004.09V146.703H1014Z" fill="#5DC7AE"/>
<path d="M1014 146.703C1015.65 144.555 1019.55 139.765 1021.92 137.783L1030.84 139.269V133.323L1037.28 127.872L1045.7 131.836L1048.67 119.447L1056.6 113.996L1070.96 116.474L1095.73 108.545C1098.21 103.92 1103.26 94.0746 1103.66 91.6959C1104.05 89.3172 1108.77 90.7048 1111.09 91.6959L1116.04 97.6426L1128.42 87.2359L1132.39 99.6248L1135.85 108.545L1123.97 113.996L1132.39 119.447L1137.34 116.474H1153.19L1171.02 108.545L1174.99 97.6426L1185.39 94.6692L1208.67 99.6248L1215.6 91.6959L1232.94 87.2359L1242.85 79.8025H1253.75L1272.57 64.4402L1281.49 73.3603L1295.85 64.4402L1298.33 75.838L1317.65 73.3603L1334.98 59.4846L1326.07 51.0602L1334.98 45.1135V31.2379H1348.36V26.2823L1358.27 17.3623L1370.15 22.8134L1375.6 15.38L1400.37 17.3623L1402.85 11.9111L1414.24 2L1418.7 8.44225H1428.11L1434.05 15.38L1425.63 34.7068H1434.05L1440 45.1135H1454.36L1471.7 40.6535L1475.66 48.5824L1467.24 64.4402L1471.7 75.838L1475.66 91.6959L1467.24 103.589C1465.43 103.424 1461.2 103.193 1458.82 103.589C1456.44 103.986 1433.39 130.845 1422.17 144.225H1414.24L1394.43 149.181H1375.6L1370.15 152.649L1348.36 155.127L1338.95 159.092L1306.25 166.03L1298.82 170.985L1277.52 176.436L1268.61 182.878L1256.72 185.356L1254.24 199.232L1242.35 201.71L1236.9 195.763L1220.06 201.71L1202.23 212.116L1206.19 224.01L1198.76 234.912H1187.87L1192.82 218.063H1181.92L1173 212.116L1156.16 218.063L1148.73 224.01L1131.4 230.948L1101.18 250.77L1096.72 264.645L1075.42 266.628L1071.95 274.061L1065.02 286.945L1047.68 302.308V296.361H1025.89L1008.05 274.061L985.268 270.592L980.809 264.645L985.268 245.814H975.856L990.716 234.912L998.642 239.372L1004.09 234.912V226.488L1009.54 212.116L975.856 199.232L985.268 180.896L975.856 173.958V163.056H990.716H1004.09V146.703H1014Z" stroke="#FFF9F9"/>
</g>
<g filter="url(#filter1_f_209_2)">
<path d="M916.414 345.421L921.863 349.386L934.742 345.421V343.439H950.098L951.584 346.908L960.005 350.377L963.472 345.421H968.921V350.377L982.295 356.324L983.286 345.421L997.156 335.51H1003.6L1011.52 339.97L1034.31 326.59V313.21L1044.21 309.246L1055.11 303.794L1066.01 290.414L1072.45 280.008L1079.88 273.07L1092.26 268.114L1105.14 264.15V273.07H1094.74L1092.26 284.963L1094.74 290.414L1087.8 294.379L1092.26 298.343V309.246H1083.84L1074.93 320.643L1083.84 326.59L1072.45 331.546L1069.48 326.59L1058.58 331.546V339.97L1051.15 345.421L1044.21 358.306L1051.15 371.19L1058.58 365.739L1069.48 374.164L1058.58 378.624L1055.11 389.03L1044.21 393.986L1038.77 409.844L1044.21 425.206V431.648L1034.31 429.171L1022.42 440.568H1011.52L1019.45 429.171L1011.52 425.206H1003.6H991.212L988.24 429.171L976.351 431.648L970.902 435.613L963.472 440.568H956.042L948.116 448.993L953.07 457.913H941.677L934.742 471.293L938.705 483.186L934.742 491.611L924.835 495.575C923.844 492.932 921.863 487.25 921.863 485.664C921.863 484.078 926.486 478.396 928.798 475.753H921.863V467.824L916.414 462.373H908.984L902.544 475.753H896.6V467.824L892.142 471.293L883.226 467.824L888.179 457.913L883.226 452.957L892.142 445.524L888.179 440.568L892.142 438.091L896.6 440.568L902.544 435.613H908.984L921.863 431.648L924.835 425.206L928.798 417.773L924.835 409.844V402.41L916.414 393.986V389.03L906.507 381.597L902.544 365.739L908.984 361.279L902.544 349.386L908.984 345.421C910.305 343.769 913.64 340.367 916.414 339.97C919.188 339.574 917.57 343.439 916.414 345.421Z" fill="#95CC82"/>
<path d="M916.414 345.421L921.863 349.386L934.742 345.421V343.439H950.098L951.584 346.908L960.005 350.377L963.472 345.421H968.921V350.377L982.295 356.324L983.286 345.421L997.156 335.51H1003.6L1011.52 339.97L1034.31 326.59V313.21L1044.21 309.246L1055.11 303.794L1066.01 290.414L1072.45 280.008L1079.88 273.07L1092.26 268.114L1105.14 264.15V273.07H1094.74L1092.26 284.963L1094.74 290.414L1087.8 294.379L1092.26 298.343V309.246H1083.84L1074.93 320.643L1083.84 326.59L1072.45 331.546L1069.48 326.59L1058.58 331.546V339.97L1051.15 345.421L1044.21 358.306L1051.15 371.19L1058.58 365.739L1069.48 374.164L1058.58 378.624L1055.11 389.03L1044.21 393.986L1038.77 409.844L1044.21 425.206V431.648L1034.31 429.171L1022.42 440.568H1011.52L1019.45 429.171L1011.52 425.206H1003.6H991.212L988.24 429.171L976.351 431.648L970.902 435.613L963.472 440.568H956.042L948.116 448.993L953.07 457.913H941.677L934.742 471.293L938.705 483.186L934.742 491.611L924.835 495.575C923.844 492.932 921.863 487.25 921.863 485.664C921.863 484.078 926.486 478.396 928.798 475.753H921.863V467.824L916.414 462.373H908.984L902.544 475.753H896.6V467.824L892.142 471.293L883.226 467.824L888.179 457.913L883.226 452.957L892.142 445.524L888.179 440.568L892.142 438.091L896.6 440.568L902.544 435.613H908.984L921.863 431.648L924.835 425.206L928.798 417.773L924.835 409.844V402.41L916.414 393.986V389.03L906.507 381.597L902.544 365.739L908.984 361.279L902.544 349.386L908.984 345.421C910.305 343.769 913.64 340.367 916.414 339.97C919.188 339.574 917.57 343.439 916.414 345.421Z" stroke="#F5F5F5"/>
</g>
<g filter="url(#filter2_f_209_2)">
<path d="M842.607 384.075L849.047 406.375L852.019 412.321L855.486 409.348L865.393 406.375L876.291 409.348L886.693 412.321L889.665 415.79L900.068 420.746L902.049 428.179L908.488 431.153L915.919 428.179L919.881 424.215L923.844 415.79L919.881 412.321V406.375L913.442 402.41L908.488 392.995L902.049 384.075L900.068 375.65L896.6 372.181V360.783H892.142L878.272 357.81L876.291 353.35H869.356L863.412 348.395L852.019 344.43L845.084 348.395V346.412L830.719 344.43L826.261 340.466L819.821 346.412L815.363 344.43H799.512V348.395L813.381 355.332L817.84 357.81V364.748L811.4 369.208V372.181L819.821 377.632L817.84 381.597L842.607 384.075Z" fill="#2A9271"/>
<path d="M876.291 205.674L888.179 202.205L902.049 194.276L900.068 189.816L907.498 181.392L912.451 184.365L916.414 178.914L938.209 155.623H958.519V149.18L967.435 140.26V132.332L973.379 128.367L975.856 121.429L981.305 118.456L992.698 121.429V126.88L1003.6 128.367L1011.03 126.88L1013.01 137.783H1020.44L1014.99 144.72H1004.59V152.649L1001.61 161.569L994.184 164.543L975.856 163.552L973.379 172.472H979.323L985.268 181.392L979.323 197.25L998.642 209.638L1011.03 214.098L1004.59 222.027L1007.56 227.974L998.642 237.885L992.698 234.912L979.323 244.823L985.268 246.805L979.323 263.654L985.268 269.601H992.698L1007.56 272.079L1017.96 284.963L1025.39 296.361H1045.7L1048.18 300.325L1027.37 315.192L1030.84 323.617L1015.98 335.51L1007.56 331.546L992.698 328.572L985.268 335.51L979.323 344.43L973.875 346.412L971.893 341.457L963.472 340.466L960.995 344.43H954.556L951.584 340.466L935.733 337.988L933.256 341.457L919.881 346.412V337.988H908.488L906.507 344.43L902.049 341.457V346.412L892.142 348.395H876.291L872.328 341.457L878.272 340.466V331.546H869.356V326.094L863.412 323.617V337.988L847.065 340.466L849.047 326.094H840.626L830.719 328.572L828.242 319.652V307.263L835.177 300.325L828.242 298.839V291.901L830.719 284.963H826.261V282.485L834.681 280.008V269.601L840.626 257.212L854 251.265V240.859L859.944 237.885V227.974H863.412L867.375 220.045L873.814 214.098L876.291 205.674Z" fill="#2A9271"/>
<path d="M842.607 384.075L849.047 406.375L852.019 412.321L855.486 409.348L865.393 406.375L876.291 409.348L886.693 412.321L889.665 415.79L900.068 420.746L902.049 428.179L908.488 431.153L915.919 428.179L919.881 424.215L923.844 415.79L919.881 412.321V406.375L913.442 402.41L908.488 392.995L902.049 384.075L900.068 375.65L896.6 372.181V360.783H892.142L878.272 357.81L876.291 353.35H869.356L863.412 348.395L852.019 344.43L845.084 348.395V346.412L830.719 344.43L826.261 340.466L819.821 346.412L815.363 344.43H799.512V348.395L813.381 355.332L817.84 357.81V364.748L811.4 369.208V372.181L819.821 377.632L817.84 381.597L842.607 384.075Z" stroke="#FFF9F9"/>
<path d="M876.291 205.674L888.179 202.205L902.049 194.276L900.068 189.816L907.498 181.392L912.451 184.365L916.414 178.914L938.209 155.623H958.519V149.18L967.435 140.26V132.332L973.379 128.367L975.856 121.429L981.305 118.456L992.698 121.429V126.88L1003.6 128.367L1011.03 126.88L1013.01 137.783H1020.44L1014.99 144.72H1004.59V152.649L1001.61 161.569L994.184 164.543L975.856 163.552L973.379 172.472H979.323L985.268 181.392L979.323 197.25L998.642 209.638L1011.03 214.098L1004.59 222.027L1007.56 227.974L998.642 237.885L992.698 234.912L979.323 244.823L985.268 246.805L979.323 263.654L985.268 269.601H992.698L1007.56 272.079L1017.96 284.963L1025.39 296.361H1045.7L1048.18 300.325L1027.37 315.192L1030.84 323.617L1015.98 335.51L1007.56 331.546L992.698 328.572L985.268 335.51L979.323 344.43L973.875 346.412L971.893 341.457L963.472 340.466L960.995 344.43H954.556L951.584 340.466L935.733 337.988L933.256 341.457L919.881 346.412V337.988H908.488L906.507 344.43L902.049 341.457V346.412L892.142 348.395H876.291L872.328 341.457L878.272 340.466V331.546H869.356V326.094L863.412 323.617V337.988L847.065 340.466L849.047 326.094H840.626L830.719 328.572L828.242 319.652V307.263L835.177 300.325L828.242 298.839V291.901L830.719 284.963H826.261V282.485L834.681 280.008V269.601L840.626 257.212L854 251.265V240.859L859.944 237.885V227.974H863.412L867.375 220.045L873.814 214.098L876.291 205.674Z" stroke="#FFF9F9"/>
</g>
<g filter="url(#filter3_f_209_2)">
<path d="M695.984 317.174L690.535 322.13H695.984L694.002 331.05L714.312 345.421L725.705 340.961L736.107 331.05H746.014V336.006L742.547 340.961V352.855V364.748L749.977 369.704L753.94 364.748H770.286L781.679 360.288H794.558L801.493 364.748L812.886 362.766V356.819L794.558 349.386V343.935L806.447 340.961H812.886L828.737 336.006L826.26 320.148L817.344 317.174V309.246L824.279 305.777V288.928H819.821L826.26 282.485L835.177 279.512V269.105L841.616 257.212L853.009 251.265L854.991 240.363L860.44 237.39V227.479H864.402L868.365 218.559L874.805 213.603C875.3 211.29 876.588 206.368 877.777 205.178C878.966 203.989 885.207 203.031 888.179 202.701V181.887H881.74L877.777 176.436H864.402L860.44 183.374H851.523L845.579 189.816H834.681L830.223 186.347L824.279 193.285H827.747L824.279 202.701L820.812 205.178L816.354 210.134H812.391L802.484 213.603H788.119C785.345 213.603 786.963 216.907 788.119 218.559H781.679V222.523H774.744L770.286 228.965L761.37 231.443V227.479L753.94 228.965L755.921 234.416H747.995L749.977 237.39L753.94 240.363L749.977 248.292L755.921 251.761L749.977 260.681L739.574 263.159L730.658 272.079L733.63 279.512C731.649 278.356 727.29 275.746 725.705 274.557C724.12 273.367 722.402 277.365 721.742 279.512H725.705L721.742 288.928L715.798 294.874H712.826L710.844 299.83L705.891 305.777C705.726 304.455 705.494 301.812 705.891 301.812H699.947V305.777L695.984 309.246V317.174Z" fill="#81D7B9"/>
<path d="M695.984 317.174L690.535 322.13H695.984L694.002 331.05L714.312 345.421L725.705 340.961L736.107 331.05H746.014V336.006L742.547 340.961V352.855V364.748L749.977 369.704L753.94 364.748H770.286L781.679 360.288H794.558L801.493 364.748L812.886 362.766V356.819L794.558 349.386V343.935L806.447 340.961H812.886L828.737 336.006L826.26 320.148L817.344 317.174V309.246L824.279 305.777V288.928H819.821L826.26 282.485L835.177 279.512V269.105L841.616 257.212L853.009 251.265L854.991 240.363L860.44 237.39V227.479H864.402L868.365 218.559L874.805 213.603C875.3 211.29 876.588 206.368 877.777 205.178C878.966 203.989 885.207 203.031 888.179 202.701V181.887H881.74L877.777 176.436H864.402L860.44 183.374H851.523L845.579 189.816H834.681L830.223 186.347L824.279 193.285H827.747L824.279 202.701L820.812 205.178L816.354 210.134H812.391L802.484 213.603H788.119C785.345 213.603 786.963 216.907 788.119 218.559H781.679V222.523H774.744L770.286 228.965L761.37 231.443V227.479L753.94 228.965L755.921 234.416H747.995L749.977 237.39L753.94 240.363L749.977 248.292L755.921 251.761L749.977 260.681L739.574 263.159L730.658 272.079L733.63 279.512C731.649 278.356 727.29 275.746 725.705 274.557C724.12 273.367 722.402 277.365 721.742 279.512H725.705L721.742 288.928L715.798 294.874H712.826L710.844 299.83L705.891 305.777C705.726 304.455 705.494 301.812 705.891 301.812H699.947V305.777L695.984 309.246V317.174Z" stroke="#FFF9F9"/>
</g>
<g filter="url(#filter4_f_209_2)">
<path d="M525.584 449.984L520.63 447.011L532.519 443.046L543.416 434.622L541.435 427.188L536.482 417.277L543.416 412.322L553.323 409.844L559.763 404.393L565.212 407.366L573.137 399.933H580.072H587.502L594.933 394.977L598.895 389.526H605.83L609.298 380.606L613.756 379.615V389.526L617.719 379.615H621.682L626.14 373.668L630.102 368.712L632.084 359.297H638.028L640.505 350.872H648.926L652.889 340.466L662.3 338.979V329.068C668.575 328.572 681.421 327.68 682.609 328.077C683.798 328.473 688.389 323.286 690.535 320.643L696.479 322.626L694.498 330.059L704.405 336.997L714.312 345.421L727.191 340.466L736.602 330.059L746.509 331.546V336.997H743.042L741.556 348.395C740.565 353.515 738.584 364.054 738.584 365.244C738.584 366.433 743.868 371.355 746.509 373.668L752.949 371.19L759.389 366.73L765.333 368.712L770.782 373.668L765.333 380.606H770.782C771.772 382.588 774.15 387.048 775.735 389.03C777.32 391.013 778.707 397.455 779.202 400.428L775.735 412.817L784.651 415.295V419.259L790.1 415.295L797.53 420.746L799.512 424.215L802.484 422.233L812.391 414.304H822.298L823.289 420.746L828.737 425.206L826.756 429.666L821.307 435.613L807.437 437.595L798.521 425.206H782.67L777.221 415.295H761.865V425.206H755.921V420.746H748.491L738.584 429.666L728.677 432.144V443.046L719.761 437.595L723.723 447.011L706.386 451.966L708.368 446.515L701.928 443.046L693.012 446.515L690.535 437.595L677.656 425.206L681.123 420.746L674.684 412.322V399.933L663.291 394.977L668.244 382.588L654.87 379.119L641.991 389.526H635.056L623.168 404.393L613.756 407.366L601.868 425.206H591.465L585.521 437.595V443.046H569.175V449.984H559.763L553.323 458.408H541.435H525.584V449.984Z" fill="#06935D"/>
<path d="M773.754 373.668V365.244L781.184 364.252L784.651 368.712H790.1H797.53L799.512 366.73H807.437C809.022 366.73 814.042 365.078 816.354 364.252L810.409 368.712L812.391 373.668L819.821 377.137L818.335 381.597C825.435 382.423 842.607 384.57 842.607 384.57L848.551 405.384L834.186 412.817L837.654 420.746L831.709 419.259V408.853L823.289 405.384L817.344 410.339H812.391C809.584 411.661 803.97 414.502 803.97 415.295C803.97 416.088 792.082 413.973 786.137 412.817L784.651 394.481L779.202 380.606L773.754 373.668Z" fill="#06935D"/>
<path d="M525.584 449.984L520.63 447.011L532.519 443.046L543.416 434.622L541.435 427.188L536.482 417.277L543.416 412.322L553.323 409.844L559.763 404.393L565.212 407.366L573.137 399.933H580.072H587.502L594.933 394.977L598.895 389.526H605.83L609.298 380.606L613.756 379.615V389.526L617.719 379.615H621.682L626.14 373.668L630.102 368.712L632.084 359.297H638.028L640.505 350.872H648.926L652.889 340.466L662.3 338.979V329.068C668.575 328.572 681.421 327.68 682.609 328.077C683.798 328.473 688.389 323.286 690.535 320.643L696.479 322.626L694.498 330.059L704.405 336.997L714.312 345.421L727.191 340.466L736.602 330.059L746.509 331.546V336.997H743.042L741.556 348.395C740.565 353.515 738.584 364.054 738.584 365.244C738.584 366.433 743.868 371.355 746.509 373.668L752.949 371.19L759.389 366.73L765.333 368.712L770.782 373.668L765.333 380.606H770.782C771.772 382.588 774.15 387.048 775.735 389.03C777.32 391.013 778.707 397.455 779.202 400.428L775.735 412.817L784.651 415.295V419.259L790.1 415.295L797.53 420.746L799.512 424.215L802.484 422.233L812.391 414.304H822.298L823.289 420.746L828.737 425.206L826.756 429.666L821.307 435.613L807.437 437.595L798.521 425.206H782.67L777.221 415.295H761.865V425.206H755.921V420.746H748.491L738.584 429.666L728.677 432.144V443.046L719.761 437.595L723.723 447.011L706.386 451.966L708.368 446.515L701.928 443.046L693.012 446.515L690.535 437.595L677.656 425.206L681.123 420.746L674.684 412.322V399.933L663.291 394.977L668.244 382.588L654.87 379.119L641.991 389.526H635.056L623.168 404.393L613.756 407.366L601.868 425.206H591.465L585.521 437.595V443.046H569.175V449.984H559.763L553.323 458.408H541.435H525.584V449.984Z" stroke="#FFF9F9"/>
<path d="M773.754 373.668V365.244L781.184 364.252L784.651 368.712H790.1H797.53L799.512 366.73H807.437C809.022 366.73 814.042 365.078 816.354 364.252L810.409 368.712L812.391 373.668L819.821 377.137L818.335 381.597C825.435 382.423 842.607 384.57 842.607 384.57L848.551 405.384L834.186 412.817L837.654 420.746L831.709 419.259V408.853L823.289 405.384L817.344 410.339H812.391C809.584 411.661 803.97 414.502 803.97 415.295C803.97 416.088 792.082 413.973 786.137 412.817L784.651 394.481L779.202 380.606L773.754 373.668Z" stroke="#FFF9F9"/>
</g>
<g filter="url(#filter5_f_209_2)">
<path d="M563.726 547.113C566.367 548.435 572.246 551.276 574.623 552.069L690.535 495.08L724.219 479.222L761.37 465.842L777.716 461.877L789.109 463.859L800.007 465.842V483.186L812.391 472.779V463.859H820.316L809.419 455.435L812.391 447.506V437.595H806.942L800.007 425.206H784.156L777.716 414.799H763.847L761.37 425.206H755.426L752.949 420.25H747.995L739.574 430.657L728.677 433.63V441.559L721.247 437.595L724.219 447.506L718.77 450.975H706.881V447.506L701.928 444.037L693.012 447.506L690.535 437.595L676.665 425.206L680.133 420.25L674.188 411.826V400.924L663.291 394.481L668.244 382.092L653.879 379.119L641.991 390.517H634.56L623.167 404.888L613.26 407.861L600.877 425.206H590.97L584.53 437.595V444.037L590.97 447.506L584.53 458.408L590.97 463.859L577.1 470.302V483.186L563.726 491.611L577.1 500.035L581.063 510.937L574.623 517.875L581.063 527.786L568.679 532.742L563.726 547.113Z" fill="#5DC7AE"/>
<path d="M563.726 547.113C566.367 548.435 572.246 551.276 574.623 552.069L690.535 495.08L724.219 479.222L761.37 465.842L777.716 461.877L789.109 463.859L800.007 465.842V483.186L812.391 472.779V463.859H820.316L809.419 455.435L812.391 447.506V437.595H806.942L800.007 425.206H784.156L777.716 414.799H763.847L761.37 425.206H755.426L752.949 420.25H747.995L739.574 430.657L728.677 433.63V441.559L721.247 437.595L724.219 447.506L718.77 450.975H706.881V447.506L701.928 444.037L693.012 447.506L690.535 437.595L676.665 425.206L680.133 420.25L674.188 411.826V400.924L663.291 394.481L668.244 382.092L653.879 379.119L641.991 390.517H634.56L623.167 404.888L613.26 407.861L600.877 425.206H590.97L584.53 437.595V444.037L590.97 447.506L584.53 458.408L590.97 463.859L577.1 470.302V483.186L563.726 491.611L577.1 500.035L581.063 510.937L574.623 517.875L581.063 527.786L568.679 532.742L563.726 547.113Z" stroke="white"/>
</g>
<g filter="url(#filter6_f_209_2)">
<path d="M436.421 610.544L458.712 620.951L574.623 552.564L563.23 546.618L568.184 533.238L580.072 526.3L572.642 517.38L580.072 512.424V504L576.605 498.549L563.23 490.62L576.605 483.186V470.797L589.979 463.364L585.521 457.913L589.979 449.488L585.521 442.551H568.184V449.488H558.772L554.314 457.913L544.407 459.399L541.435 457.913H525.088V463.364L466.637 490.62L471.591 498.549L466.637 504H445.833L422.056 526.3V546.618L436.421 555.538L428.991 568.918C431.468 575.525 436.421 589.632 436.421 593.2V610.544Z" fill="#95CC82"/>
<path d="M436.421 610.544L458.712 620.951L574.623 552.564L563.23 546.618L568.184 533.238L580.072 526.3L572.642 517.38L580.072 512.424V504L576.605 498.549L563.23 490.62L576.605 483.186V470.797L589.979 463.364L585.521 457.913L589.979 449.488L585.521 442.551H568.184V449.488H558.772L554.314 457.913L544.407 459.399L541.435 457.913H525.088V463.364L466.637 490.62L471.591 498.549L466.637 504H445.833L422.056 526.3V546.618L436.421 555.538L428.991 568.918C431.468 575.525 436.421 589.632 436.421 593.2V610.544Z" stroke="#FFF9F9"/>
</g>
<g filter="url(#filter7_f_209_2)">
<path d="M126.333 949.506H135.744V941.081L126.333 930.179L118.407 918.286L126.333 905.401L135.744 897.968V883.101V859.314L153.081 832.554L200.14 791.918L248.188 758.716L215 736.416L223.421 722.54L206.579 711.638L200.14 694.789L187.26 678.436L200.14 664.56L193.7 657.127L200.14 638.791L193.7 619.96H178.344H160.512L146.642 598.651L118.407 609.058L126.333 619.96L94.1349 627.393L101.565 645.234L86.2093 657.127L78.7791 671.002L59.4605 682.896V694.789L70.3581 711.638L94.1349 722.54L101.565 717.089V736.416H86.2093V751.283L78.7791 758.716L70.3581 775.07L78.7791 785.476H86.2093L101.565 791.918L110.977 799.847L101.565 825.121L94.1349 844.448L78.7791 859.314H64.9093V869.225H53.5163H43.6093L34.1977 883.101H20.3279L12.4023 874.677V883.101L2 889.543L7.44884 897.968L12.4023 905.401L7.44884 918.286H20.3279L12.4023 923.737L26.2721 930.179L20.3279 935.63L7.44884 941.081L12.4023 949.506L7.44884 957.93V966.85L12.4023 971.806H20.3279V979.239L34.1977 984.69L43.6093 979.239H49.0581V984.69V991.133L53.5163 995.593L70.3581 984.69L78.7791 979.239H86.2093L94.1349 971.806H101.565L110.977 966.85L118.407 957.93H126.333V949.506Z" fill="#81D7B9"/>
<path d="M126.333 949.506H135.744V941.081L126.333 930.179L118.407 918.286L126.333 905.401L135.744 897.968V883.101V859.314L153.081 832.554L200.14 791.918L248.188 758.716L215 736.416L223.421 722.54L206.579 711.638L200.14 694.789L187.26 678.436L200.14 664.56L193.7 657.127L200.14 638.791L193.7 619.96H178.344H160.512L146.642 598.651L118.407 609.058L126.333 619.96L94.1349 627.393L101.565 645.234L86.2093 657.127L78.7791 671.002L59.4605 682.896V694.789L70.3581 711.638L94.1349 722.54L101.565 717.089V736.416H86.2093V751.283L78.7791 758.716L70.3581 775.07L78.7791 785.476H86.2093L101.565 791.918L110.977 799.847L101.565 825.121L94.1349 844.448L78.7791 859.314H64.9093V869.225H53.5163H43.6093L34.1977 883.101H20.3279L12.4023 874.677V883.101L2 889.543L7.44884 897.968L12.4023 905.401L7.44884 918.286H20.3279L12.4023 923.737L26.2721 930.179L20.3279 935.63L7.44884 941.081L12.4023 949.506L7.44884 957.93V966.85L12.4023 971.806H20.3279V979.239L34.1977 984.69L43.6093 979.239H49.0581V984.69V991.133L53.5163 995.593L70.3581 984.69L78.7791 979.239H86.2093L94.1349 971.806H101.565L110.977 966.85L118.407 957.93H126.333V949.506Z" stroke="white"/>
</g>
<g filter="url(#filter8_f_209_2)">
<path d="M161.998 591.218L150.109 604.102L161.998 620.456H193.7L197.663 637.305L193.7 656.631L197.663 666.047L187.261 676.949L197.663 695.285L208.065 712.134L223.916 722.045L215.991 736.416L249.179 760.203L254.628 752.769L307.135 715.603L335.37 695.285H350.23L368.558 686.365V676.949L456.73 620.456L435.926 609.058V591.218L427.505 568.422L435.926 555.538L422.056 546.122V524.813L444.347 504.495H465.647L471.095 496.566L465.647 490.124L525.088 461.877V450.479L509.237 434.622H493.881L485.956 421.737L465.647 426.197V434.622L448.805 441.064L444.347 434.622L427.505 441.064L422.056 434.622H406.7V446.515L384.905 461.877L393.821 434.622L406.7 412.817H393.821V401.915L384.905 393.986V385.066H374.502L359.147 373.172H341.314L319.519 385.066L335.37 393.986L324.968 401.915L319.519 393.986L307.135 401.915L293.761 412.817L277.414 426.197L269.488 421.737L259.086 434.622L266.021 446.515L277.414 450.479L269.488 461.877L277.414 467.328V477.24H264.535L254.628 490.124V496.566L242.74 510.442L231.347 504.495H210.542L205.588 490.124H197.663V504.495H169.428V524.813H157.044L150.109 546.122H157.044V555.538L161.998 562.971L169.428 578.333L161.998 591.218Z" fill="#2A9271"/>
<path d="M161.998 591.218L150.109 604.102L161.998 620.456H193.7L197.663 637.305L193.7 656.631L197.663 666.047L187.261 676.949L197.663 695.285L208.065 712.134L223.916 722.045L215.991 736.416L249.179 760.203L254.628 752.769L307.135 715.603L335.37 695.285H350.23L368.558 686.365V676.949L456.73 620.456L435.926 609.058V591.218L427.505 568.422L435.926 555.538L422.056 546.122V524.813L444.347 504.495H465.647L471.095 496.566L465.647 490.124L525.088 461.877V450.479L509.237 434.622H493.881L485.956 421.737L465.647 426.197V434.622L448.805 441.064L444.347 434.622L427.505 441.064L422.056 434.622H406.7V446.515L384.905 461.877L393.821 434.622L406.7 412.817H393.821V401.915L384.905 393.986V385.066H374.502L359.147 373.172H341.314L319.519 385.066L335.37 393.986L324.968 401.915L319.519 393.986L307.135 401.915L293.761 412.817L277.414 426.197L269.488 421.737L259.086 434.622L266.021 446.515L277.414 450.479L269.488 461.877L277.414 467.328V477.24H264.535L254.628 490.124V496.566L242.74 510.442L231.347 504.495H210.542L205.588 490.124H197.663V504.495H169.428V524.813H157.044L150.109 546.122H157.044V555.538L161.998 562.971L169.428 578.333L161.998 591.218Z" stroke="#FFF9F9"/>
</g>
<defs>
<filter id="filter0_f_209_2" x="973.329" y="0.256104" width="503.896" height="304.163" filterUnits="userSpaceOnUse" color-interpolation-filters="sRGB">
<feFlood flood-opacity="0" result="BackgroundImageFix"/>
<feBlend mode="normal" in="SourceGraphic" in2="BackgroundImageFix" result="shape"/>
<feGaussianBlur stdDeviation="0.5" result="effect1_foregroundBlur_209_2"/>
</filter>
<filter id="filter1_f_209_2" x="881.485" y="262.473" width="225.157" height="234.756" filterUnits="userSpaceOnUse" color-interpolation-filters="sRGB">
<feFlood flood-opacity="0" result="BackgroundImageFix"/>
<feBlend mode="normal" in="SourceGraphic" in2="BackgroundImageFix" result="shape"/>
<feGaussianBlur stdDeviation="0.5" result="effect1_foregroundBlur_209_2"/>
</filter>
<filter id="filter2_f_209_2" x="798.012" y="116.922" width="251.838" height="315.775" filterUnits="userSpaceOnUse" color-interpolation-filters="sRGB">
<feFlood flood-opacity="0" result="BackgroundImageFix"/>
<feBlend mode="normal" in="SourceGraphic" in2="BackgroundImageFix" result="shape"/>
<feGaussianBlur stdDeviation="0.5" result="effect1_foregroundBlur_209_2"/>
</filter>
<filter id="filter3_f_209_2" x="688.242" y="174.936" width="201.437" height="196.438" filterUnits="userSpaceOnUse" color-interpolation-filters="sRGB">
<feFlood flood-opacity="0" result="BackgroundImageFix"/>
<feBlend mode="normal" in="SourceGraphic" in2="BackgroundImageFix" result="shape"/>
<feGaussianBlur stdDeviation="0.5" result="effect1_foregroundBlur_209_2"/>
</filter>
<filter id="filter4_f_209_2" x="518.441" y="319.06" width="331.703" height="140.849" filterUnits="userSpaceOnUse" color-interpolation-filters="sRGB">
<feFlood flood-opacity="0" result="BackgroundImageFix"/>
<feBlend mode="normal" in="SourceGraphic" in2="BackgroundImageFix" result="shape"/>
<feGaussianBlur stdDeviation="0.5" result="effect1_foregroundBlur_209_2"/>
</filter>
<filter id="filter5_f_209_2" x="561.787" y="377.576" width="260.993" height="176.032" filterUnits="userSpaceOnUse" color-interpolation-filters="sRGB">
<feFlood flood-opacity="0" result="BackgroundImageFix"/>
<feBlend mode="normal" in="SourceGraphic" in2="BackgroundImageFix" result="shape"/>
<feGaussianBlur stdDeviation="0.5" result="effect1_foregroundBlur_209_2"/>
</filter>
<filter id="filter6_f_209_2" x="420.556" y="441.051" width="171.189" height="181.465" filterUnits="userSpaceOnUse" color-interpolation-filters="sRGB">
<feFlood flood-opacity="0" result="BackgroundImageFix"/>
<feBlend mode="normal" in="SourceGraphic" in2="BackgroundImageFix" result="shape"/>
<feGaussianBlur stdDeviation="0.5" result="effect1_foregroundBlur_209_2"/>
</filter>
<filter id="filter7_f_209_2" x="0.303223" y="597.044" width="249.773" height="400.188" filterUnits="userSpaceOnUse" color-interpolation-filters="sRGB">
<feFlood flood-opacity="0" result="BackgroundImageFix"/>
<feBlend mode="normal" in="SourceGraphic" in2="BackgroundImageFix" result="shape"/>
<feGaussianBlur stdDeviation="0.5" result="effect1_foregroundBlur_209_2"/>
</filter>
<filter id="filter8_f_209_2" x="148.421" y="371.672" width="378.167" height="390.225" filterUnits="userSpaceOnUse" color-interpolation-filters="sRGB">
<feFlood flood-opacity="0" result="BackgroundImageFix"/>
<feBlend mode="normal" in="SourceGraphic" in2="BackgroundImageFix" result="shape"/>
<feGaussianBlur stdDeviation="0.5" result="effect1_foregroundBlur_209_2"/>
</filter>
</defs>
</svg>
